<?xml version="1.0" encoding="UTF-8"?>
<svg id="Layer_1" xmlns="http://www.w3.org/2000/svg" version="1.1" viewBox="0 0 841.89 595.28">
  <!-- Generator: Adobe Illustrator 29.0.1, SVG Export Plug-In . SVG Version: 2.1.0 Build 192)  -->
  <defs>
    <style>
      .st0 {
        fill: #ff8dc8;
      }
    </style>
  </defs>
  <path class="st0" d="M50.97,249.64c0-2.7,1.8-4.5,4.5-4.5h6c.6,0,1.05,0,1.65.15.45-.15.9-.15,1.5-.15h22.8c44.25,0,44.4,61.5,0,61.5h-21.45v39c0,2.7-1.8,4.5-4.5,4.5h-6c-2.7,0-4.5-1.8-4.5-4.5v-96ZM87.27,257.14h-21.3v37.5h21.3c25.8,0,26.25-37.5,0-37.5Z"/>
  <path class="st0" d="M161.82,273.64c52.8,0,52.8,78,0,78-45.45,0-51.75-57.75-18.9-73.95-.6,6.15-.3,9.75,1.8,15.9-14.1,13.8-8.4,44.55,17.1,44.55,18.9,0,26.85-16.8,24.15-31.2-3.15,2.4-7.2,3.6-11.7,3.6-37.35,0-37.95-54-3-57.45,2.4-.3,4.2,1.5,4.65,4.05l.6,3.75c.45,2.4-1.2,4.2-3.75,4.5-6.45.9-10.5,4.05-12.6,8.25h1.65ZM173.22,298.54c4.2,0,6.15-3.75,3.3-6.9-4.5-3.3-9.6-4.5-15.15-4.5-.75,0-1.5,0-2.25.15,1.95,6.15,6.9,11.25,14.1,11.25Z"/>
  <path class="st0" d="M244.32,273.64c20.4,0,34.05,12.75,28.8,18l-3.45,3.45c-.45.45-.9.6-1.5.6-3.9,0-10.65-8.4-25.2-8.4-7.5,0-19.35,3.3-19.35,11.4,0,14.1,53.25,3.9,53.25,28.8,0,18-18.45,24.15-33.3,24.15-16.05,0-36.9-12.6-31.5-18l4.5-4.5c.6-.6,1.2-.75,1.8-.75,1.65,0,3.45,1.65,6,3.75,3.45,2.85,15,6,21.45,6,8.7,0,16.35-2.55,16.35-8.55,0-15.75-53.25-2.55-53.25-30.15,0-16.95,17.7-25.8,35.4-25.8Z"/>
  <path class="st0" d="M320.22,287.14c-10.2,0-21.15,9-21.15,26.55,0,12.45,7.2,24.45,21.9,24.45,5.25,0,10.8-1.8,15.9-6,2.55-2.1,4.35-3.75,6-3.75.6,0,1.2.15,1.8.75l4.5,4.5c3.15,3.15-9,18-27.6,18-25.2,0-37.2-18.6-37.2-37.65,0-22.5,12.6-40.35,35.7-40.35,18.9,0,32.55,14.55,32.55,32.7v1.5c0,6-3,9-9,9h-35.1c-2.55,0-4.5-1.65-4.5-4.2v-1.95c0-2.55,1.65-4.35,4.2-4.35h26.4c2.1,0,3-1.05,2.7-3-1.8-10.8-9.3-16.2-17.1-16.2Z"/>
  <path class="st0" d="M355.02,304.09c0-2.55,1.65-4.2,4.2-4.2h36.6c2.55,0,4.2,1.65,4.2,4.2v3.6c0,2.55-1.65,4.2-4.2,4.2h-36.6c-2.55,0-4.2-1.65-4.2-4.2v-3.6Z"/>
  <path class="st0" d="M430.92,282.34c7.95-5.55,18-8.7,27.6-8.7,40.05,0,41.25,42.9,41.25,72.3,0,2.55-1.65,4.2-4.2,4.2h-6.6c-2.55,0-4.2-1.65-4.35-4.2-.6-19.05.6-58.8-27.15-58.8-5.85,0-11.7,1.35-16.95,5.25,17.4,23.7,15.15,59.25-11.55,59.25-28.2,0-24-38.85-11.4-53.7,6.3,4.05,8.85,7.65,11.4,12.15-5.1,3.6-11.25,26.55,0,26.55,12.9,0,11.7-39.45-21.75-48.75-2.55-.75-4.2-2.55-4.2-4.95v-6.6c0-2.55,1.8-4.2,4.2-3.9,9.3,1.05,17.25,4.8,23.7,9.9Z"/>
  <path class="st0" d="M502.77,304.09c0-2.55,1.65-4.2,4.2-4.2h36.6c2.55,0,4.2,1.65,4.2,4.2v3.6c0,2.55-1.65,4.2-4.2,4.2h-36.6c-2.55,0-4.2-1.65-4.2-4.2v-3.6Z"/>
  <path class="st0" d="M588.72,337.99c12.6,0,24.45-5.85,24.45-17.25,0-26.1-60.15-9.15-60.15-45.15,0-21.15,19.65-31.8,39.6-31.95,11.4,0,23.85,3.45,32.25,11.55,1.95,1.95,1.8,4.8-.6,6.75l-4.2,3.75c-.9.75-1.95,1.05-2.85,1.05-1.35,0-2.55-.6-3.75-1.8-6.3-6.3-14.7-7.8-22.05-7.8-12.15,0-23.4,6.9-23.4,17.4,0,21.3,60.15,8.7,60.15,44.7,0,21.15-19.35,32.25-40.05,32.25-11.25,0-23.55-3.3-31.8-11.4-2.1-1.95-1.95-4.8.3-6.9l4.05-3.45c.9-.9,1.95-1.35,3-1.35,1.2,0,2.4.75,3.6,1.95,5.4,6,13.35,7.65,21.45,7.65Z"/>
  <path class="st0" d="M676.47,273.64c12.9,0,25.95,7.35,25.95,22.35,0,10.05-6.45,24.15-35.85,24.15-50.85,0-43.8-62.85-8.85-66.3,2.4-.3,4.2,1.5,4.65,4.05l.6,3.75c.45,2.4-1.2,4.2-3.75,4.5-12.45,1.65-18.9,15.15-16.05,26.4,6.45-11.4,18.3-18.9,33.3-18.9ZM674.37,338.14c5.25,0,10.8-1.8,15.9-6,2.55-2.1,4.35-3.75,6-3.75.6,0,1.2.15,1.8.75l4.5,4.5c3.15,3.15-9,18-27.6,18-25.5,0-37.5-19.05-37.2-38.4,6,4.95,9.45,6.75,15.75,8.4,2.4,9.15,9.45,16.5,20.85,16.5ZM666.57,308.14c25.2.3,30-21,10.2-21-12.6,0-20.4,8.25-23.1,18.15,3.45,1.65,7.65,2.7,12.9,2.85Z"/>
  <path class="st0" d="M724.92,350.14h-6c-2.7,0-4.5-1.8-4.5-4.5v-67.5c0-2.7,1.8-4.5,4.5-4.5h6c2.7,0,4.5,1.8,4.5,4.5v9.3c6.9-9.3,16.8-13.8,26.55-13.8,17.55,0,34.95,11.4,34.95,37.8v34.2c0,2.7-1.8,4.5-4.5,4.5h-6c-2.7,0-4.5-1.8-4.5-4.5v-34.65c0-17.55-10.35-23.85-21.15-23.85-12.3,0-25.35,12-25.35,37.5v21c0,2.7-1.8,4.5-4.5,4.5Z"/>
</svg>