<svg width="124" height="116" viewBox="0 0 124 116" fill="none" xmlns="http://www.w3.org/2000/svg">
<g clip-path="url(#clip0_168_3)">
<path d="M111.81 40.5C113.46 38.3 114.82 35.79 115.8 33.01C120.48 19.7 114.47 5.45003 102.37 1.20003C90.57 -2.94997 77.35 3.94003 72.36 16.63L111.82 40.91V40.49L111.81 40.5Z" fill="#CBE8A3"/>
<path d="M102.47 1.61996C90.67 -2.53004 77.45 4.35996 72.46 17.05L72.51 17.08C78.83 8.96996 89.17 5.23996 98.6 8.54996C110.7 12.8 116.71 27.04 112.03 40.36C111.93 40.65 111.82 40.93 111.71 41.21L111.92 41.34V40.92C113.57 38.72 114.93 36.21 115.91 33.43C120.59 20.12 114.58 5.86996 102.48 1.61996H102.47Z" fill="#E9F5D7"/>
<path d="M10.7601 40.5101C9.11006 38.3101 7.75006 35.8001 6.77006 33.0201C2.09006 19.7101 8.10006 5.47005 20.2001 1.22005C32.0001 -2.92995 45.2201 3.96005 50.2101 16.6501L10.7601 40.9301V40.5101Z" fill="#CBE8A3"/>
<path d="M20.1 1.62997C31.9 -2.52003 45.12 4.36997 50.11 17.06L50.06 17.09C43.74 8.97997 33.4 5.24997 23.97 8.55997C11.87 12.81 5.86001 27.05 10.54 40.37C10.64 40.66 10.75 40.94 10.86 41.22L10.65 41.35V40.93C9.00001 38.73 7.64001 36.22 6.66001 33.44C1.99001 20.12 8.00001 5.87997 20.1 1.62997Z" fill="#E9F5D7"/>
<path d="M61.39 15.8001C61.39 15.8001 99.83 13.3101 117.62 50.5201C136.45 89.9201 105.15 116.28 63.7 115.03H59.51C18.06 116.28 -13.24 89.9201 5.59001 50.5201C23.4 13.3101 61.84 15.8001 61.84 15.8001H61.4H61.39Z" fill="#CBE8A3"/>
<path d="M23.37 48.39C30.0913 48.39 35.54 42.9414 35.54 36.2201C35.54 29.4987 30.0913 24.05 23.37 24.05C16.6486 24.05 11.2 29.4987 11.2 36.2201C11.2 42.9414 16.6486 48.39 23.37 48.39Z" fill="#FFC8DE"/>
<path d="M99.8599 48.39C106.581 48.39 112.03 42.9414 112.03 36.2201C112.03 29.4987 106.581 24.05 99.8599 24.05C93.1386 24.05 87.6899 29.4987 87.6899 36.2201C87.6899 42.9414 93.1386 48.39 99.8599 48.39Z" fill="#FFC8DE"/>
<path d="M26.65 30.7801C31.731 30.7801 35.8499 26.491 35.8499 21.2001C35.8499 15.9092 31.731 11.6201 26.65 11.6201C21.5689 11.6201 17.45 15.9092 17.45 21.2001C17.45 26.491 21.5689 30.7801 26.65 30.7801Z" fill="#1E5050"/>
<path d="M96.5899 30.7801C101.671 30.7801 105.79 26.491 105.79 21.2001C105.79 15.9092 101.671 11.6201 96.5899 11.6201C91.5089 11.6201 87.3899 15.9092 87.3899 21.2001C87.3899 26.491 91.5089 30.7801 96.5899 30.7801Z" fill="#1E5050"/>
<path d="M72.96 30.9099C71.69 30.3999 70.24 31.0199 69.71 32.2799C69.63 32.4599 67.78 36.7399 61.61 36.7399C55.44 36.7399 53.61 32.5199 53.52 32.2899C53.01 31.0199 51.57 30.3899 50.29 30.8899C49 31.3899 48.36 32.8399 48.86 34.1199C48.98 34.4299 51.93 41.7399 61.61 41.7399C71.29 41.7399 74.24 34.4299 74.36 34.1199C74.85 32.8399 74.23 31.4199 72.96 30.9099Z" fill="#1E5050"/>
</g>
<defs>
<clipPath id="clip0_168_3">
<rect width="123.23" height="115.08" fill="white"/>
</clipPath>
</defs>
</svg>
