<?xml version="1.0" encoding="UTF-8"?>
<svg id="Layer_1" xmlns="http://www.w3.org/2000/svg" version="1.1" viewBox="0 0 841.89 595.28">
  <!-- Generator: Adobe Illustrator 29.0.1, SVG Export Plug-In . SVG Version: 2.1.0 Build 192)  -->
  <defs>
    <style>
      .st0 {
        fill: #ff8dc8;
      }
    </style>
  </defs>
  <path class="st0" d="M62.52,260.89h-22.5c-2.7,0-4.5-1.8-4.5-4.5v-3c0-2.7,1.8-4.5,4.5-4.5h60c2.7,0,4.5,1.8,4.5,4.5v3c0,2.7-1.8,4.5-4.5,4.5h-22.5v88.5c0,2.7-1.8,4.5-4.5,4.5h-6c-2.7,0-4.5-1.8-4.5-4.5v-88.5Z"/>
  <path class="st0" d="M125.82,334.24c-23.55-33-21.9-92.85,11.1-92.85,18.3,0,26.55,18.75,25.8,41.1,1.95-.45,3.6-.6,4.95-.6,40.05,0,38.85,38.4,38.85,67.8,0,2.55-1.65,4.2-4.2,4.2h-6.6c-2.55,0-4.2-1.65-4.35-4.2-.6-19.05,4.05-54.3-23.7-54.3-1.5,0-3.75.15-6.6,1.8-2.25,11.4-6.45,22.8-12.75,32.4-5.55-6.75-7.5-9.45-9.9-13.65,13.8-25.05,11.7-59.55-1.5-59.55-18.9,0-17.7,73.95,21.75,83.25,2.55.6,4.2,2.55,4.2,4.95v6.6c0,2.55-1.8,4.2-4.2,3.9-8.7-.9-16.2-4.5-22.65-9.75-6,5.25-12.9,8.85-20.85,9.75-2.4.3-4.2-1.35-4.2-3.9v-6.6c0-2.4,1.65-4.2,4.2-4.95,4.05-1.05,7.5-2.85,10.65-5.4Z"/>
  <path class="st0" d="M279.12,328.39c0-17.4-8.55-37.5-28.65-37.5-15.15,0-24,12.75-24,26.85s8.4,24.15,22.5,24.15c4.95,0,10.35-1.95,15.3-6,3.15-2.55,4.5-3.75,5.85-3.75,1.65,0,3,1.8,6.45,5.25,3.15,3.15-9,18-27.6,18-25.35,0-37.05-18.3-37.05-37.2,0-26.4,18.75-40.8,37.8-40.8,13.05,0,22.95,6,29.4,15v-10.5c0-2.7,1.8-4.5,4.5-4.5h6c2.7,0,4.5,1.8,4.5,4.5v67.5c0,2.7-1.8,4.5-4.5,4.5h-6c-2.7,0-4.5-1.8-4.5-4.5v-21Z"/>
  <path class="st0" d="M331.02,286.09c7.95-5.55,18-8.7,27.6-8.7,40.05,0,41.25,42.9,41.25,72.3,0,2.55-1.65,4.2-4.2,4.2h-6.6c-2.55,0-4.2-1.65-4.35-4.2-.6-19.05.6-58.8-27.15-58.8-5.85,0-11.7,1.35-16.95,5.25,17.4,23.7,15.15,59.25-11.55,59.25-28.2,0-24-38.85-11.4-53.7,6.3,4.05,8.85,7.65,11.4,12.15-5.1,3.6-11.25,26.55,0,26.55,12.9,0,11.7-39.45-21.75-48.75-2.55-.75-4.2-2.55-4.2-4.95v-6.6c0-2.55,1.8-4.2,4.2-3.9,9.3,1.05,17.25,4.8,23.7,9.9Z"/>
  <path class="st0" d="M427.92,334.24c-23.55-33-21.9-92.85,11.1-92.85,19.95,0,27.9,22.35,25.5,47.1,5.25-5.4,12-6.6,15.75-6.6,21.6,0,24.6,27,11.1,38.85,10.8,6.15,12.75,20.25,12.75,28.95,0,2.55-1.65,4.2-4.2,4.2h-6.6c-2.55,0-4.2-1.65-4.35-4.2-.3-7.95,1.35-21.6-12.75-23.4-3.6.15-7.65-.6-12.15-2.1l3.15-11.4c3,.9,5.55,1.2,7.8,1.2,16.2,0,16.05-18.6,3.15-18.6-3.6,0-12.3,1.95-21.3,22.2v-.15c-1.8,4.2-4.05,8.4-6.45,12.15-5.55-6.75-7.5-9.45-9.9-13.65,13.8-25.05,11.7-59.55-1.5-59.55-18.9,0-17.7,73.95,21.75,83.25,2.55.6,4.2,2.55,4.2,4.95v6.6c0,2.55-1.8,4.2-4.2,3.9-8.7-.9-16.2-4.5-22.65-9.75-6,5.25-12.9,8.85-20.85,9.75-2.4.3-4.2-1.35-4.2-3.9v-6.6c0-2.4,1.65-4.2,4.2-4.95,4.05-1.05,7.5-2.85,10.65-5.4Z"/>
  <path class="st0" d="M594.42,316.99v32.4c0,2.7-1.8,4.5-4.5,4.5h-6c-2.7,0-4.5-1.8-4.5-4.5v-33.3l-32.85-62.7c-1.35-2.4.75-4.5,3.45-4.5h6c2.7,0,4.2,2.1,5.55,4.5l25.65,48.3,25.5-48.3c1.35-2.4,2.85-4.5,5.55-4.5h6c2.7,0,4.8,2.1,3.45,4.5l-33.15,63.3c0,.15-.15.15-.15.3Z"/>
  <path class="st0" d="M662.52,277.39c52.8,0,52.8,78,0,78-45.45,0-51.75-57.75-18.9-73.95-.6,6.15-.3,9.75,1.8,15.9-14.1,13.8-8.4,44.55,17.1,44.55,18.9,0,26.85-16.8,24.15-31.2-3.15,2.4-7.2,3.6-11.7,3.6-37.35,0-37.95-54-3-57.45,2.4-.3,4.2,1.5,4.65,4.05l.6,3.75c.45,2.4-1.2,4.2-3.75,4.5-6.45.9-10.5,4.05-12.6,8.25h1.65ZM673.92,302.29c4.2,0,6.15-3.75,3.3-6.9-4.5-3.3-9.6-4.5-15.15-4.5-.75,0-1.5,0-2.25.15,1.95,6.15,6.9,11.25,14.1,11.25Z"/>
  <path class="st0" d="M776.36,345.34c-7.95,6.15-18,10.05-27.75,10.05-40.05,0-41.25-31.95-41.25-73.8,0-2.55,1.65-4.2,4.2-4.2h6.6c2.55,0,4.35,1.65,4.35,4.2.6,31.5-.6,60.3,27.15,60.3,5.85,0,11.85-2.1,17.1-6.6-17.55-23.55-15.3-59.4,11.4-59.4,28.2,0,24,38.85,11.4,53.7-6.3-4.05-8.85-7.65-11.4-12.15,5.1-3.6,11.25-26.55,0-26.55-12.9,0-11.7,39.45,21.75,48.75,2.55.75,4.2,2.55,4.2,4.95v6.6c0,2.55-1.8,4.2-4.2,3.9-9.15-1.05-17.1-4.8-23.55-9.75Z"/>
</svg>